<svg width="31" height="30" viewBox="0 0 31 30" fill="none" xmlns="http://www.w3.org/2000/svg">
<path d="M25.2569 29.9986C24.6554 29.9717 24.0875 29.6851 23.6749 29.2003C23.2623 28.7155 23.0381 28.0711 23.0502 27.4054C23.0624 26.7397 23.31 26.1059 23.74 25.6398C24.1699 25.1738 24.7479 24.9128 25.3499 24.9128C25.9518 24.9128 26.5297 25.1738 26.9597 25.6398C27.3896 26.1059 27.6372 26.7397 27.6494 27.4054C27.6616 28.0711 27.4373 28.7155 27.0247 29.2003C26.6122 29.6851 26.0442 29.9717 25.4427 29.9986H25.2569ZM7.19825 27.2462C7.19825 26.7018 7.3442 26.1697 7.61764 25.717C7.89109 25.2644 8.27976 24.9116 8.73448 24.7033C9.1892 24.495 9.68959 24.4404 10.1723 24.5466C10.6551 24.6529 11.0985 24.915 11.4465 25.2999C11.7945 25.6849 12.0316 26.1753 12.1276 26.7092C12.2236 27.2431 12.1743 27.7966 11.9859 28.2995C11.7976 28.8024 11.4786 29.2323 11.0694 29.5348C10.6601 29.8372 10.179 29.9986 9.68685 29.9986C9.35989 29.9989 9.03605 29.9279 8.73391 29.7897C8.43177 29.6515 8.15723 29.4488 7.92596 29.1932C7.69468 28.9376 7.51125 28.6341 7.38607 28.3C7.26089 27.9659 7.19644 27.6078 7.19644 27.2462H7.19825ZM10.7268 21.4599C10.4859 21.4607 10.2514 21.374 10.0593 21.2132C9.86725 21.0523 9.72826 20.8262 9.66361 20.5695L5.17586 2.64274H2.0253C1.73421 2.64274 1.45503 2.51484 1.24919 2.28718C1.04336 2.05952 0.927734 1.75075 0.927734 1.42879C0.927734 1.10684 1.04336 0.798064 1.24919 0.570405C1.45503 0.342746 1.73421 0.21485 2.0253 0.21485H6.00048C6.24143 0.214015 6.47593 0.300827 6.66788 0.461914C6.85984 0.623001 6.99852 0.849427 7.06268 1.10631L11.5504 19.0331H23.787L27.8569 8.7135H14.3C14.1531 8.71822 14.0069 8.6903 13.8699 8.6314C13.733 8.57249 13.6081 8.48379 13.5027 8.37055C13.3973 8.25731 13.3135 8.12183 13.2562 7.97213C13.199 7.82244 13.1695 7.66156 13.1695 7.49904C13.1695 7.33651 13.199 7.17564 13.2562 7.02594C13.3135 6.87624 13.3973 6.74076 13.5027 6.62752C13.6081 6.51428 13.733 6.42558 13.8699 6.36668C14.0069 6.30777 14.1531 6.27985 14.3 6.28458H29.5404C29.7221 6.28453 29.901 6.33455 30.0608 6.43012C30.2207 6.5257 30.3564 6.66381 30.4559 6.83198C30.5561 7.00071 30.617 7.1942 30.6332 7.39525C30.6494 7.5963 30.6205 7.79865 30.5489 7.98431L25.53 20.7318C25.4442 20.9481 25.3034 21.1321 25.1246 21.2614C24.9459 21.3907 24.737 21.4597 24.5234 21.4599H10.7268Z" fill="#E8E8E8"/>
</svg>
