<svg width="29" height="30" viewBox="0 0 29 30" fill="none" xmlns="http://www.w3.org/2000/svg">
<path d="M14.8182 20.6907C18.9968 20.6907 22.3916 16.0968 22.3916 10.4522C22.3916 4.80771 18.9968 0.214844 14.8182 0.214844C13.7626 0.237173 12.7256 0.526442 11.7866 1.06049C10.8476 1.59455 10.0316 2.35921 9.40101 3.29592C7.97159 5.34559 7.21162 7.87011 7.24487 10.4584C7.24487 16.0978 10.6397 20.6907 14.8182 20.6907ZM14.8182 2.07684C18.0682 2.07684 20.709 5.83474 20.709 10.4533C20.709 15.0718 18.0663 18.8297 14.8182 18.8297C11.5701 18.8297 8.92745 15.0708 8.92653 10.4533C8.9256 5.83576 11.5683 2.07684 14.8182 2.07684ZM20.709 18.8297C20.4858 18.8297 20.2717 18.9278 20.1138 19.1024C19.956 19.277 19.8673 19.5138 19.8673 19.7607C19.8673 20.0076 19.956 20.2444 20.1138 20.419C20.2717 20.5936 20.4858 20.6917 20.709 20.6917C22.2708 20.6936 23.7682 21.3807 24.8726 22.6021C25.977 23.8236 26.5981 25.4797 26.5998 27.2072C26.5993 27.4538 26.5105 27.6901 26.3528 27.8645C26.1952 28.0389 25.9815 28.1371 25.7585 28.1376H3.87974C3.65677 28.1371 3.44311 28.0389 3.28544 27.8645C3.12778 27.6901 3.03894 27.4538 3.03845 27.2072C3.04042 25.4798 3.66171 23.8239 4.76602 22.6024C5.87033 21.381 7.36751 20.6939 8.92925 20.6917C9.15237 20.6917 9.36634 20.5937 9.52411 20.4192C9.68188 20.2447 9.77053 20.008 9.77053 19.7612C9.77053 19.5144 9.68188 19.2778 9.52411 19.1033C9.36634 18.9288 9.15237 18.8307 8.92925 18.8307C6.92119 18.8326 -4.30469 29.9986 3.57573 21.2857C2.15556 22.8559 1.35653 24.9851 1.35407 27.2061C1.35481 27.9465 1.62104 28.6563 2.09436 29.1798C2.56769 29.7033 3.20945 29.9978 3.87883 29.9986H25.7585C26.4278 29.9975 27.0693 29.7029 27.5424 29.1795C28.0156 28.656 28.2816 27.9463 28.2824 27.2061C28.2799 24.9854 27.4813 22.8564 26.0615 21.2861C24.6418 19.7158 22.7168 18.8324 20.709 18.8297Z" fill="#E8E8E8"/>
</svg>
